<?xml version="1.0" standalone="no"?>
<!DOCTYPE svg PUBLIC "-//W3C//DTD SVG 20010904//EN"
 "http://www.w3.org/TR/2001/REC-SVG-20010904/DTD/svg10.dtd">
<svg version="1.0" xmlns="http://www.w3.org/2000/svg"
 width="725.000000pt" height="725.000000pt" viewBox="0 0 725.000000 725.000000"
 preserveAspectRatio="xMidYMid meet">

<g transform="translate(0.000000,725.000000) scale(0.100000,-0.100000)"
fill="#34eb40" stroke="none">
<path d="M3531 7005 c-29 -9 -65 -24 -80 -34 -14 -11 -454 -449 -977 -973
-647 -648 -961 -969 -980 -1003 -25 -42 -29 -61 -29 -120 0 -47 7 -83 19 -110
13 -27 329 -350 1010 -1032 l991 -992 59 -16 c70 -20 137 -15 193 14 58 30
1985 1964 2014 2021 16 32 22 62 22 105 0 126 45 75 -1022 1137 -1036 1031
-1001 999 -1116 1012 -30 3 -71 -1 -104 -9z m124 -976 c34 -9 115 -85 549
-517 279 -279 521 -527 537 -551 33 -51 37 -101 14 -158 -18 -44 -965 -999
-1034 -1044 -52 -34 -119 -39 -179 -14 -51 22 -1025 994 -1052 1051 -25 50
-25 107 -1 159 12 27 185 208 527 551 518 521 514 517 594 533 3 0 23 -4 45
-10z"/>
<path d="M447 6353 c-239 -361 -381 -753 -427 -1181 -16 -141 -8 -482 14 -607
82 -478 290 -876 644 -1232 144 -145 248 -235 392 -339 69 -50 178 -131 245
-180 21 -16 71 -51 111 -79 140 -98 250 -176 324 -230 41 -30 111 -81 155
-112 44 -31 82 -59 85 -63 3 -4 39 -31 80 -60 41 -30 77 -58 80 -62 3 -4 31
-27 62 -50 228 -175 529 -469 700 -683 240 -301 401 -584 562 -994 41 -102 76
-193 80 -201 12 -30 -3 529 -19 670 -51 472 -143 809 -316 1153 -73 147 -161
290 -244 397 -27 36 -52 67 -55 70 -3 3 -44 50 -92 106 -97 114 -281 289 -438
419 -58 47 -125 103 -150 124 -25 20 -70 54 -100 76 -30 22 -57 43 -60 47 -3
4 -39 32 -80 62 -298 219 -538 402 -555 422 -5 6 -33 29 -60 50 -105 82 -278
243 -388 363 -245 266 -433 591 -516 891 -78 284 -92 667 -36 996 20 118 56
275 67 297 5 10 7 21 5 23 -3 3 -34 -39 -70 -93z"/>
<path d="M6740 6432 c0 -5 7 -28 15 -53 77 -234 109 -714 65 -1007 -51 -347
-179 -643 -412 -952 -109 -145 -341 -379 -524 -530 -17 -14 -51 -42 -75 -62
-48 -40 -121 -97 -239 -185 -41 -31 -77 -60 -80 -63 -3 -4 -39 -31 -80 -60
-41 -29 -77 -56 -80 -59 -3 -4 -39 -31 -80 -61 -41 -30 -79 -60 -85 -66 -5 -6
-35 -30 -65 -53 -77 -58 -137 -106 -195 -156 -27 -23 -79 -66 -114 -95 -82
-68 -297 -282 -388 -385 -298 -341 -505 -757 -611 -1230 -68 -298 -106 -678
-100 -985 l3 -165 49 130 c160 425 338 751 567 1040 150 190 405 449 583 594
39 31 79 65 91 76 25 24 127 104 210 165 33 25 70 53 80 62 11 10 52 40 90 68
39 27 104 75 145 105 41 31 113 83 160 116 184 130 219 155 246 176 32 25 132
96 241 173 40 27 80 58 90 68 10 10 36 31 58 47 87 64 288 251 376 351 290
329 466 689 540 1109 31 171 33 524 6 705 -62 405 -191 746 -409 1083 -68 103
-78 116 -78 99z"/>
<path d="M643 3185 c3 -11 8 -51 12 -90 11 -113 53 -330 90 -465 80 -291 195
-531 358 -750 68 -91 227 -259 298 -315 32 -25 64 -52 71 -59 7 -7 60 -44 118
-82 128 -85 325 -190 440 -234 47 -17 90 -35 95 -40 6 -4 66 -29 135 -55 69
-26 135 -54 147 -61 12 -7 68 -34 125 -59 57 -25 119 -56 138 -69 19 -12 64
-40 100 -61 121 -73 316 -242 403 -350 22 -27 37 -42 34 -32 -4 11 -10 31 -13
45 -17 75 -86 314 -105 362 -55 144 -149 312 -251 450 -99 134 -290 320 -453
441 -33 24 -66 50 -73 56 -7 7 -43 33 -80 57 -384 256 -725 500 -952 682 -156
125 -367 330 -508 494 -143 168 -135 159 -129 135z"/>
<path d="M6574 3157 c-22 -24 -74 -84 -116 -133 -101 -117 -371 -373 -478
-454 -25 -18 -49 -39 -55 -45 -5 -6 -46 -38 -89 -71 -43 -32 -113 -85 -155
-116 -90 -68 -191 -139 -397 -280 -83 -57 -162 -111 -175 -120 -13 -10 -58
-41 -99 -70 -41 -28 -77 -54 -80 -58 -3 -3 -30 -25 -60 -47 -257 -188 -477
-436 -617 -693 -77 -141 -123 -264 -176 -470 -43 -166 -44 -160 16 -89 67 80
185 190 246 231 25 17 55 39 66 49 33 30 184 116 295 170 58 27 122 59 144 70
21 12 86 39 145 61 58 22 124 48 146 58 22 10 81 35 130 55 109 45 255 125
390 213 438 286 727 712 871 1282 27 108 97 500 89 500 -2 0 -20 -19 -41 -43z"/>
</g>
</svg>
